<?xml version="1.0" encoding="utf-8"?>
<!-- Generator: Adobe Illustrator 25.3.1, SVG Export Plug-In . SVG Version: 6.00 Build 0)  -->
<svg version="1.1" id="图层_1" xmlns="http://www.w3.org/2000/svg" xmlns:xlink="http://www.w3.org/1999/xlink" x="0px" y="0px"
	 viewBox="0 0 20.2 20" style="enable-background:new 0 0 20.2 20;" xml:space="preserve">
<style type="text/css">
	.st0{fill-rule:evenodd;clip-rule:evenodd;fill:#00C773;}
	.st1{fill:#FFFFFF;}
	.st2{opacity:0.6;fill-rule:evenodd;clip-rule:evenodd;fill:#FFFFFF;enable-background:new    ;}
</style>
<path id="矩形备份-10_3_" class="st0" d="M8.9,0h2.3c0.6,0,1,0,1.5,0l0.3,0c0.1,0,0.1,0,0.1,0l0.2,0c1.2,0.1,2,0.4,2.8,0.8
	L16.3,1c0,0,0,0,0.1,0c1.2,0.6,2.2,1.6,2.8,2.8l0.1,0.1l0,0L19.3,4c0.4,0.8,0.7,1.6,0.8,2.8l0,0.2c0,0,0,0.1,0,0.1l0,0.2
	c0,0.4,0.1,0.9,0.1,1.5v2.1c0,0.5,0,1-0.1,1.5l0,0.2c0,0,0,0.1,0,0.1l0,0.2c-0.1,1.2-0.4,2-0.8,2.8l-0.1,0.1c0,0,0,0-0.1,0.1
	c-0.7,1.2-1.6,2.2-2.8,2.8l-0.1,0l0,0l-0.2,0.1c-0.8,0.4-1.6,0.6-2.8,0.8l-0.2,0c-0.1,0-0.1,0-0.1,0l-0.3,0c-0.5,0-0.9,0-1.5,0H9
	c-0.6,0-1,0-1.5,0l-0.3,0c-0.1,0-0.1,0-0.1,0l-0.2,0c-1.2-0.1-2-0.4-2.8-0.8L3.9,19c0,0-0.1,0-0.1,0c-1.2-0.7-2.1-1.7-2.8-2.9L1,16
	l0,0l-0.1-0.1c-0.4-0.8-0.7-1.6-0.8-2.8l0-0.2c0,0,0-0.1,0-0.1l0-0.2C0,12.1,0,11.7,0,11.2V8.9c0-0.5,0-1,0.1-1.5l0-0.2
	c0,0,0-0.1,0-0.1l0-0.2c0.1-1.2,0.4-2,0.8-2.8L1,3.9c0,0,0,0,0,0C1.7,2.6,2.6,1.6,3.9,1l0.1,0l0,0l0.2-0.1c0.8-0.4,1.6-0.6,2.8-0.8
	l0.2,0c0.1,0,0.1,0,0.1,0l0.3,0C7.9,0,8.4,0,8.9,0z"/>
<g id="编组-10_1_" transform="translate(19.500000, 19.500000)">
	<path id="矩形备份-3_2_" class="st1" d="M-4.5-8.7c0,2.7-2.3,5-5,5c-2.7,0-5-2.2-5-4.9v-0.1v-4.5c0-0.7,0.6-1.2,1.3-1.2
		c0.7,0,1.2,0.5,1.3,1.2v0v4.5c0,1.4,1.1,2.5,2.5,2.5c1.4,0,2.5-1.1,2.5-2.4v-0.1v-0.4c0-0.7,0.6-1.2,1.3-1.2c0.7,0,1.2,0.5,1.3,1.2
		v0V-8.7z"/>
	<path id="矩形备份-13_2_" class="st2" d="M-4.7-11.9H-7l0,0v-1c0-1,0.8-1.7,1.8-1.7H-3l0,0v1C-3-12.7-3.8-11.9-4.7-11.9z"/>
</g>
</svg>
