<?xml version="1.0" standalone="no"?><!DOCTYPE svg PUBLIC "-//W3C//DTD SVG 1.1//EN" "http://www.w3.org/Graphics/SVG/1.1/DTD/svg11.dtd"><svg t="1662809180047" class="icon" viewBox="0 0 1024 1024" version="1.1" xmlns="http://www.w3.org/2000/svg" p-id="4441" xmlns:xlink="http://www.w3.org/1999/xlink" width="128" height="128"><path d="M800 416H224c-16 0-32 12.8-32 32s12.8 32 32 32h576c16 0 32-12.8 32-32s-12.8-32-32-32z m0 128H224c-16 0-32 12.8-32 32s12.8 32 32 32h576c16 0 32-12.8 32-32s-12.8-32-32-32zM608 672H224c-19.2 0-32 12.8-32 32s16 32 32 32h384c19.2 0 32-12.8 32-32s-16-32-32-32z" fill="#cccccc" p-id="4442"></path><path d="M896 96H128c-35.2 0-64 28.8-64 64v672c0 35.2 28.8 64 64 64h768c35.2 0 64-28.8 64-64V160c0-35.2-28.8-64-64-64z m0 704c0 19.2-12.8 32-32 32H160c-19.2 0-32-12.8-32-32V192c0-19.2 12.8-32 32-32h704c19.2 0 32 12.8 32 32v608z" fill="#cccccc" p-id="4443"></path><path d="M800 288H224c-16 0-32 12.8-32 32s12.8 32 32 32h576c16 0 32-12.8 32-32s-12.8-32-32-32z" fill="#cccccc" p-id="4444"></path></svg>